<?xml version="1.0" encoding="UTF-8"?>
<svg id="Layer_1" xmlns="http://www.w3.org/2000/svg" version="1.1" xmlns:xlink="http://www.w3.org/1999/xlink" viewBox="0 0 388.28 73.79">
  <!-- Generator: Adobe Illustrator 29.8.3, SVG Export Plug-In . SVG Version: 2.1.1 Build 3)  -->
  <defs>
    <style>
      .st0 {
        fill: url(#linear-gradient2);
      }

      .st1 {
        fill: url(#linear-gradient10);
      }

      .st2 {
        fill: url(#linear-gradient1);
      }

      .st3 {
        fill: url(#linear-gradient9);
      }

      .st4 {
        fill: url(#linear-gradient8);
      }

      .st5 {
        fill: url(#linear-gradient11);
      }

      .st6 {
        fill: url(#linear-gradient12);
      }

      .st7 {
        fill: url(#linear-gradient7);
      }

      .st8 {
        fill: url(#linear-gradient4);
      }

      .st9 {
        fill: url(#linear-gradient5);
      }

      .st10 {
        fill: url(#linear-gradient3);
      }

      .st11 {
        fill: url(#linear-gradient6);
      }

      .st12 {
        fill: url(#linear-gradient);
      }
    </style>
    <linearGradient id="linear-gradient" x1="65.79" y1="53.18" x2="100.69" y2="18.29" gradientUnits="userSpaceOnUse">
      <stop offset="0" stop-color="#1f4497"/>
      <stop offset="1" stop-color="#814298"/>
    </linearGradient>
    <linearGradient id="linear-gradient1" x1="107.4" y1="52.25" x2="133.26" y2="26.39" xlink:href="#linear-gradient"/>
    <linearGradient id="linear-gradient2" x1="138.74" y1="56.61" x2="164" y2="31.35" xlink:href="#linear-gradient"/>
    <linearGradient id="linear-gradient3" x1="174.99" y1="55.21" x2="211.19" y2="19.01" xlink:href="#linear-gradient"/>
    <linearGradient id="linear-gradient4" x1="213.11" y1="49.17" x2="240" y2="22.28" xlink:href="#linear-gradient"/>
    <linearGradient id="linear-gradient5" x1="230.02" y1="60.87" x2="267.22" y2="23.66" xlink:href="#linear-gradient"/>
    <linearGradient id="linear-gradient6" x1="273.16" y1="49.44" x2="295.72" y2="26.88" xlink:href="#linear-gradient"/>
    <linearGradient id="linear-gradient7" x1="298.59" y1="21.74" x2="306.15" y2="14.18" xlink:href="#linear-gradient"/>
    <linearGradient id="linear-gradient8" x1="292.03" y1="52.25" x2="312.78" y2="31.51" xlink:href="#linear-gradient"/>
    <linearGradient id="linear-gradient9" x1="316.41" y1="53.66" x2="339.9" y2="30.17" xlink:href="#linear-gradient"/>
    <linearGradient id="linear-gradient10" x1="349.29" y1="54.04" x2="373.21" y2="30.12" xlink:href="#linear-gradient"/>
    <linearGradient id="linear-gradient11" x1="24.69" y1="57.52" x2="33.11" y2="49.1" xlink:href="#linear-gradient"/>
    <linearGradient id="linear-gradient12" x1="22.42" y1="49.17" x2="52.36" y2="19.23" xlink:href="#linear-gradient"/>
  </defs>
  <g>
    <path class="st12" d="M97.85,16.56c-3.26-1.78-7.1-2.67-11.51-2.67h-16.17v43.65h16.14c4.47,0,8.33-.89,11.59-2.67,3.25-1.78,5.76-4.3,7.51-7.56,1.76-3.26,2.64-7.13,2.64-11.6s-.88-8.34-2.65-11.6c-1.77-3.26-4.28-5.78-7.54-7.56ZM96.23,43.02c-.85,1.93-2.14,3.37-3.87,4.32-1.73.95-3.91,1.42-6.55,1.42h-5.16v-26.07h5.04c2.66,0,4.86.47,6.61,1.42,1.75.95,3.05,2.39,3.91,4.32.86,1.93,1.29,4.37,1.29,7.29s-.42,5.36-1.27,7.29Z"/>
    <path class="st2" d="M130.23,26.03c-2.01,0-3.63.45-4.86,1.36s-2.14,2.37-2.72,4.38h-.12v-5.57h-9.81v31.35h10.14v-16.29c0-1.45.26-2.68.78-3.69.52-1.02,1.25-1.8,2.18-2.34.94-.55,2.01-.82,3.22-.82.7,0,1.45.02,2.23.06.78.04,1.37.08,1.76.12v-8.44c-.41-.04-.85-.07-1.3-.09-.46-.02-.95-.03-1.48-.03Z"/>
    <path class="st0" d="M160.94,28.42c-1.22-.93-2.7-1.63-4.44-2.11-1.74-.48-3.71-.72-5.92-.72-2.93,0-5.44.42-7.53,1.26-2.09.84-3.72,2.04-4.89,3.59s-1.87,3.41-2.08,5.58l9.35.26c.1-.7.35-1.31.76-1.83.41-.52.97-.91,1.67-1.19.7-.27,1.51-.41,2.43-.41s1.67.13,2.31.4,1.14.63,1.49,1.1.53,1.03.53,1.67v.18c0,.63-.24,1.11-.73,1.45-.49.34-1.29.61-2.4.81-1.11.2-2.6.37-4.45.53-1.64.14-3.19.4-4.64.79-1.46.39-2.74.96-3.85,1.7-1.11.74-1.98,1.71-2.61,2.9-.63,1.19-.94,2.68-.94,4.45,0,2.07.45,3.79,1.36,5.17s2.16,2.41,3.76,3.09c1.6.68,3.44,1.03,5.51,1.03,1.48,0,2.79-.18,3.93-.54,1.13-.36,2.12-.91,2.97-1.64s1.58-1.66,2.18-2.77h.18v4.39h9.79v-21.15c0-1.72-.32-3.25-.95-4.58-.63-1.34-1.56-2.47-2.78-3.4ZM154.72,46.3c0,1.04-.26,1.94-.79,2.71-.53.77-1.25,1.37-2.15,1.8-.91.43-1.93.64-3.06.64-.82,0-1.54-.12-2.15-.37-.62-.24-1.1-.6-1.45-1.07s-.53-1.03-.53-1.67c0-.7.19-1.3.59-1.79.39-.49.93-.88,1.63-1.19.69-.3,1.5-.52,2.42-.66.59-.1,1.15-.19,1.7-.29.55-.1,1.06-.2,1.54-.31.48-.11.91-.22,1.29-.34s.71-.23.98-.35v2.87Z"/>
    <path class="st10" d="M205.23,36.22c-.51,2.29-1.01,4.66-1.49,7.13-.29,1.48-.59,2.99-.88,4.49-.34-1.5-.67-3.01-1.01-4.5-.58-2.48-1.15-4.85-1.71-7.12l-2.55-10.02h-8.96l-2.58,10.02c-.57,2.27-1.14,4.64-1.73,7.12-.35,1.48-.68,2.99-1.02,4.49-.3-1.5-.59-3-.9-4.49-.52-2.48-1.04-4.85-1.57-7.12l-2.4-10.02h-10.61l9.52,31.35h10.4l3.43-11.6c.33-1.13.65-2.32.95-3.57.3-1.25.61-2.52.92-3.81.02-.07.03-.14.05-.21.02.07.03.14.05.21.3,1.29.61,2.56.92,3.81.31,1.25.62,2.44.94,3.57l3.4,11.6h10.43l9.55-31.35h-10.81l-2.34,10.02Z"/>
    <rect class="st8" x="221.49" y="13.9" width="10.14" height="43.65"/>
    <path class="st9" d="M254.5,40.85c-.64,1.97-1.24,3.97-1.77,6.01-.08.29-.15.58-.22.87-.07-.28-.15-.58-.22-.86-.52-2.02-1.08-4.03-1.68-6.02l-4.66-14.65h-10.61l11.98,31.32-.41,1.41c-.18.78-.42,1.41-.73,1.88s-.73.8-1.26.98c-.53.19-1.2.25-2.02.19l-3.63-.09-.5,7.73c1.02.08,2.1.14,3.27.18,1.16.04,2.31.06,3.44.06,1.89,0,3.52-.29,4.88-.88s2.52-1.48,3.49-2.7c.97-1.21,1.79-2.73,2.48-4.57l13.45-35.51h-10.49l-4.78,14.65Z"/>
    <path class="st11" d="M291.36,49.8c-.72.01-1.32.01-1.79.01-1.07,0-1.81-.19-2.21-.57s-.6-1.05-.6-2.01v-13.27h6.24v-7.76h-6.24v-8.29h-10.14v8.29h-5.07v7.76h5.07v14.79c0,3.03.87,5.27,2.62,6.72,1.75,1.46,4.45,2.18,8.1,2.18,1.09,0,2.18-.01,3.25-.04s1.94-.08,2.61-.16l-.29-7.71c-.31.02-.83.03-1.55.04Z"/>
    <path class="st7" d="M302.35,12.9c-1.56,0-2.87.48-3.91,1.44-1.04.96-1.57,2.16-1.57,3.6s.52,2.68,1.57,3.63c1.04.96,2.36,1.44,3.94,1.44s2.89-.48,3.93-1.44c1.04-.96,1.55-2.16,1.55-3.6s-.52-2.68-1.55-3.63c-1.04-.96-2.35-1.44-3.96-1.44Z"/>
    <rect class="st4" x="297.34" y="26.2" width="10.14" height="31.35"/>
    <path class="st3" d="M325.08,34.54c.9-.67,1.98-1.01,3.25-1.01.74,0,1.42.12,2.04.35s1.15.57,1.6,1c.45.43.81.95,1.1,1.57s.48,1.3.6,2.07l9.64-.35c-.14-1.88-.6-3.58-1.39-5.11-.79-1.53-1.85-2.86-3.18-3.97s-2.89-1.98-4.67-2.59-3.75-.92-5.9-.92c-3.24,0-6.07.69-8.48,2.07s-4.28,3.29-5.61,5.74c-1.33,2.45-1.99,5.3-1.99,8.54s.66,6.09,1.99,8.54c1.33,2.45,3.2,4.36,5.61,5.73,2.41,1.37,5.24,2.05,8.48,2.05,2.17,0,4.15-.31,5.96-.92s3.38-1.49,4.72-2.62c1.34-1.13,2.39-2.47,3.16-4.01.77-1.54,1.21-3.26,1.3-5.16l-9.67-.32c-.1.78-.29,1.49-.57,2.12-.28.63-.65,1.17-1.1,1.61s-.98.78-1.6,1.01-1.29.35-2.04.35c-1.25,0-2.33-.34-3.24-1.01s-1.6-1.64-2.06-2.9-.7-2.75-.7-4.47.23-3.23.7-4.48c.47-1.25,1.15-2.21,2.05-2.89Z"/>
    <path class="st1" d="M373.92,41.99c-1.52-1.39-3.9-2.38-7.12-2.99l-6.21-1.11c-1.13-.23-1.99-.57-2.56-1.01s-.86-.99-.86-1.66c0-.76.38-1.4,1.14-1.9.76-.51,1.79-.76,3.08-.76s2.46.35,3.34,1.04c.88.69,1.36,1.58,1.44,2.65l9.23-.32c-.12-2.13-.77-3.96-1.96-5.49-1.19-1.53-2.83-2.72-4.92-3.56-2.09-.84-4.57-1.26-7.44-1.26s-5.38.42-7.47,1.25c-2.09.83-3.7,2-4.82,3.52-1.12,1.51-1.68,3.31-1.68,5.38,0,2.46.8,4.46,2.39,6.01,1.59,1.54,3.94,2.6,7.05,3.16l5.62,1.03c1.25.23,2.2.57,2.84,1,.64.43.97.99.97,1.67,0,.8-.4,1.45-1.19,1.93-.79.49-1.89.73-3.3.73-1.52,0-2.73-.34-3.62-1.03-.89-.68-1.44-1.62-1.66-2.81l-9.84.32c.23,2.17,1.01,4.04,2.33,5.61,1.32,1.57,3.08,2.78,5.27,3.63s4.72,1.27,7.57,1.27,5.44-.45,7.66-1.35,3.94-2.15,5.17-3.76,1.85-3.49,1.85-5.64c0-2.3-.76-4.15-2.29-5.54Z"/>
  </g>
  <g>
    <path class="st5" d="M35.99,51.98l-11.56-4.68c-1.17,1.73-3.11,2.89-5.33,2.98l1.68,2.92c1.55,2.7,4.42,4.36,7.53,4.36h9.18c-1.01-1.18-1.62-2.72-1.62-4.39,0-.4.04-.8.11-1.18Z"/>
    <path class="st6" d="M58.52,31.37l-7.56-13.11c-1.55-2.7-4.42-4.36-7.53-4.36h-15.11c-3.11,0-5.98,1.66-7.53,4.36l-7.56,13.11c-1.51,2.63-1.54,5.85-.1,8.51,1.2-1.88,3.3-3.14,5.7-3.14,1.34,0,2.58.39,3.63,1.07l5.64-5.76c-.71-1.07-1.13-2.36-1.13-3.75,0-3.74,3.03-6.77,6.76-6.77s6.76,3.03,6.76,6.77-3.03,6.77-6.76,6.77c-1.34,0-2.58-.39-3.63-1.07l-5.64,5.76c.71,1.07,1.13,2.36,1.13,3.75,0,.4-.04.8-.11,1.18l11.55,4.68c1.21-1.8,3.27-2.99,5.61-2.99,3.73,0,6.76,3.03,6.76,6.77,0,.84-.16,1.64-.44,2.38.79-.65,1.47-1.43,2-2.35l7.56-13.11c1.55-2.7,1.55-6.02,0-8.71Z"/>
  </g>
</svg>